{
  "accessors": [
    {
      "bufferView": 2,
      "componentType": 5126,
      "count": 11240,
      "max": [
        0.25908800959587097,
        0.7324050068855286,
        0.2577599883079529
      ],
      "min": [
        -0.2626059949398041,
        -3.9999998989515007e-05,
        -0.2639339864253998
      ],
      "type": "VEC3"
    },
    {
      "bufferView": 2,
      "byteOffset": 134880,
      "componentType": 5126,
      "count": 11240,
      "max": [
        0.9999260902404785,
        1.0,
        0.9999260902404785
      ],
      "min": [
        -0.9999359846115112,
        -0.9999958276748657,
        -0.9999955892562866
      ],
      "type": "VEC3"
    },
    {
      "bufferView": 1,
      "componentType": 5126,
      "count": 11240,
      "max": [
        0.9889699816703796,
        0.9887300133705139
      ],
      "min": [
        0.009871999733150005,
        0.01863497495651245
      ],
      "type": "VEC2"
    },
    {
      "bufferView": 1,
      "byteOffset": 89920,
      "componentType": 5126,
      "count": 11240,
      "max": [
        0.9889699816703796,
        0.9887300133705139
      ],
      "min": [
        0.009871999733150005,
        0.01863497495651245
      ],
      "type": "VEC2"
    },
    {
      "bufferView": 1,
      "byteOffset": 179840,
      "componentType": 5126,
      "count": 11240,
      "max": [
        0.9889699816703796,
        0.9887300133705139
      ],
      "min": [
        0.009871999733150005,
        0.01863497495651245
      ],
      "type": "VEC2"
    },
    {
      "bufferView": 0,
      "componentType": 5125,
      "count": 58416,
      "type": "SCALAR"
    }
  ],
  "asset": {
    "extras": {
      "author": "chickenpants93 (https://sketchfab.com/chickenpants93)",
      "license": "CC-BY-4.0 (http://creativecommons.org/licenses/by/4.0/)",
      "source": "https://sketchfab.com/3d-models/cluckbucks-coffee-cup-10899ecd56d74abf91674254b0435ef3",
      "title": "Cluckbucks Coffee Cup"
    },
    "generator": "Sketchfab-13.40.0",
    "version": "2.0"
  },
  "bufferViews": [
    {
      "buffer": 0,
      "byteLength": 233664,
      "name": "floatBufferViews",
      "target": 34963
    },
    {
      "buffer": 0,
      "byteLength": 269760,
      "byteOffset": 233664,
      "byteStride": 8,
      "name": "floatBufferViews",
      "target": 34962
    },
    {
      "buffer": 0,
      "byteLength": 269760,
      "byteOffset": 503424,
      "byteStride": 12,
      "name": "floatBufferViews",
      "target": 34962
    }
  ],
  "buffers": [
    {
      "byteLength": 773184,
      "uri": "scene.bin"
    }
  ],
  "images": [
    {
      "uri": "textures/Material_baseColor.png"
    },
    {
      "uri": "textures/Material_metallicRoughness.png"
    }
  ],
  "materials": [
    {
      "name": "Material",
      "pbrMetallicRoughness": {
        "baseColorTexture": {
          "index": 0
        },
        "metallicRoughnessTexture": {
          "index": 1
        }
      }
    }
  ],
  "meshes": [
    {
      "name": "coffee_cup_Cylinder_007_Material",
      "primitives": [
        {
          "attributes": {
            "NORMAL": 1,
            "POSITION": 0,
            "TEXCOORD_0": 2,
            "TEXCOORD_1": 3,
            "TEXCOORD_2": 4
          },
          "indices": 5,
          "material": 0,
          "mode": 4
        }
      ]
    }
  ],
  "nodes": [
    {
      "children": [
        1
      ],
      "matrix": [
        1.0,
        0.0,
        0.0,
        0.0,
        0.0,
        2.220446049250313e-16,
        -1.0,
        0.0,
        0.0,
        1.0,
        2.220446049250313e-16,
        0.0,
        0.0,
        0.0,
        0.0,
        1.0
      ],
      "name": "Sketchfab_model"
    },
    {
      "children": [
        2
      ],
      "matrix": [
        1.0,
        0.0,
        0.0,
        0.0,
        0.0,
        2.220446049250313e-16,
        1.0,
        0.0,
        0.0,
        -1.0,
        2.220446049250313e-16,
        0.0,
        0.0,
        0.0,
        0.0,
        1.0
      ],
      "name": "USDRoot"
    },
    {
      "children": [
        3
      ],
      "name": "coffee_cup_obj_2"
    },
    {
      "children": [
        4
      ],
      "name": "Geom"
    },
    {
      "mesh": 0,
      "name": "coffee_cup_Cylinder_007_Material"
    }
  ],
  "samplers": [
    {
      "magFilter": 9729,
      "minFilter": 9987,
      "wrapS": 10497,
      "wrapT": 10497
    }
  ],
  "scene": 0,
  "scenes": [
    {
      "name": "Sketchfab_Scene",
      "nodes": [
        0
      ]
    }
  ],
  "textures": [
    {
      "sampler": 0,
      "source": 0
    },
    {
      "sampler": 0,
      "source": 1
    }
  ]
}
