<svg xmlns="http://www.w3.org/2000/svg" data-name="Layer 38" viewBox="0 0 100 125" x="0px" y="0px">
    <path d="M31.55,70s-1.11-5.43-1.36-5.43t0,0l-7.42.23-.6,3.95c-.66,5.94,3.06,8.71,7.33,8.71a11.41,11.41,0,0,0,1.16-.06c4.56-.53,6.35-2.63,7.36-11a11.12,11.12,0,0,1,5.14-8.58c0-.91-.06-1.83-.08-2.71C33.13,57.31,31.55,70,31.55,70Z"/>
    <path d="M74.4,53.84h-.32a1.73,1.73,0,0,1-1.86-1.51.74.74,0,0,1,.62-.86.76.76,0,0,1,.86.63c0,.14,0,.29.53.23,1.87-.2,5.3-3,5.89-6.14A20.88,20.88,0,0,1,76.38,42a8.14,8.14,0,0,0-1.54.88.74.74,0,0,1-1-.14.75.75,0,0,1,.14-1,9.66,9.66,0,0,1,1.87-1.08c-.57-.26-1.76-.75-3-1.26-7.46-3.06-12-5.07-13.47-6.37a13,13,0,0,1-4.1.63,25.28,25.28,0,0,1-8.35-1.65,44,44,0,0,0-2,8.75.72.72,0,0,1-.2.42c-2.85,3-5.92,6.46-6.88,7.76a44.08,44.08,0,0,0,6,1,.75.75,0,0,1,.68.73c.07,4.41.26,11.34.51,12.68.73.65,5.83,1,9.9.2l.12,0a10.69,10.69,0,0,0,3.56-1.31h0a.74.74,0,0,1,1,.22.75.75,0,0,1-.21,1h0l0,0a11.32,11.32,0,0,1-3.45,1.36v2.53l22.4-.83v-3c0-4.38.45-5.16,2.36-7.78.82-1.13,2-2.66,3.45-5.15.14-.22.27-.47.4-.7-.83-.64-1.95-1.52-3.11-2.52C80.26,50.83,76.53,53.6,74.4,53.84Z"/>
    <path d="M42.79,81.52l40.46-3.08h.11V67.74L48.37,69Z"/>
    <path d="M42.1,83.08,34.35,85l2,10H86.68s.82-9.16-3.32-15.06Z"/>
    <path d="M79.79,11.73c-14.16-5-24.31,4.69-26.57,7.12a28.32,28.32,0,0,1,6.6,11.07C62.36,25.42,69.66,14.06,79.79,11.73Z"/>
    <path d="M77.75,39.4c5.57.22,11.85,0,13.92-.76l0-.54c.73-6.72,2.06-19-8.12-24.7,1.6,11.82-3.71,21.94-5.77,25.84Z"/>
    <path d="M60.2,32.39l15.67,7.39h0l0,0h0c.15-.31.35-.7.61-1.18,2-3.87,7.38-14,5.51-25.67C69.34,14.13,60.37,32,60.2,32.39Z"/>
    <path d="M58.68,31.57A25.72,25.72,0,0,0,51.93,19.7c-3.85.55-13.26,2.12-15.61,3.54,0,.16.35,1.06,2.36,2.61C43.23,29.38,52.58,33.51,58.68,31.57Z"/>
    <path d="M77.49,40.89C78,42,79.75,44,83.32,47c5.26,4.36,9.85,6.82,10.93,6.71,0-3.19-1.8-11-2.41-13.54C88.42,41.2,80.31,41,77.49,40.89Z"/>
    <path d="M82.2,12.68a.76.76,0,0,0,.67.11,15.18,15.18,0,0,1,1.94-.42A11.93,11.93,0,0,1,91,12.8a.75.75,0,0,0,.29.06.75.75,0,0,0,.29-1.44A9.71,9.71,0,0,0,89,10.77a17.48,17.48,0,0,0-5.7.35,11.1,11.1,0,0,0-1.7-4.74,7.78,7.78,0,0,0-1.87-2,.74.74,0,0,0-1,.17.75.75,0,0,0,.16,1.05,8.08,8.08,0,0,1,2.89,5.27,8.77,8.77,0,0,1,.13,1.2A.75.75,0,0,0,82.2,12.68Z"/>
    <path d="M23.82,51.25a3.59,3.59,0,0,0,0,.47,2.7,2.7,0,0,0,.85,2,2.06,2.06,0,1,0,2.86,1.89,2.1,2.1,0,0,0-.38-1.21,2.73,2.73,0,0,0,.17-5.29,3.88,3.88,0,0,0,.44-1.79,4,4,0,0,0-2.5-3.68A5.63,5.63,0,0,0,25.91,41a5.5,5.5,0,0,0-.8-2.87,7.91,7.91,0,0,0-.8-15.71,4.41,4.41,0,0,0,0-.52,4.52,4.52,0,0,0-8.72-1.64A6.5,6.5,0,1,0,9.76,31.49a5,5,0,0,0,5,8.53,4.73,4.73,0,0,0-.09.93,5.61,5.61,0,0,0,5.21,5.59,4.77,4.77,0,0,0-.07.76,4,4,0,0,0,4,4Z"/>
</svg>